# xmcd CD database file
#
# Track frame offsets:
#	150
#	34165
#	64391
#	94131
#	113402
#	139711
#	160485
#	182747
#	207588
#	232688
#
# Disc length: 3340 seconds
#
# Revision: 0
# Processed by: cddbd v1.5.1PL2 Copyright (c) Steve Scherf et al.
# Submitted via: CDex 1.51
#
DISCID=860d0a0a
DTITLE=Alquimia - Angaelic Voices
DYEAR=2003
DGENRE=New Age
TTITLE0=Magdine
TTITLE1=Bem'an Perdut
TTITLE2=Angaelica
TTITLE3=Stella Mundis
TTITLE4=Maghera
TTITLE5=She Moved Through the Fair
TTITLE6=Adara
TTITLE7=Laudé Mysterium
TTITLE8=Santé Morla
TTITLE9=Watching Venus
EXTD=YEAR: 2003
EXTT0=
EXTT1=
EXTT2=
EXTT3=
EXTT4=
EXTT5=
EXTT6=
EXTT7=
EXTT8=
EXTT9=
PLAYORDER=
